<svg width="70" height="70" viewBox="0 0 70 70" fill="none" xmlns="http://www.w3.org/2000/svg">
<path d="M12.9106 59.5027L7.9953 4.37549H62.0047L57.0828 59.4939L34.9672 65.6255L12.9106 59.5027Z" fill="#E44F26"/>
<path d="M35 60.9397L52.8719 55.985L57.0762 8.88379H35V60.9397Z" fill="#F1662A"/>
<path d="M35 29.3281H26.0531L25.4363 22.4046H35V15.6431H18.0469L18.2088 17.4587L19.8691 36.0896H35V29.3281ZM35 46.8871L34.9694 46.8959L27.44 44.8637L26.9588 39.4715H20.1709L21.1181 50.0853L34.9694 53.9309L35 53.9221V46.8871Z" fill="#EBEBEB"/>
<path d="M34.9759 29.3281V36.0896H43.3016L42.5184 44.8593L34.9759 46.8937V53.9287L48.8381 50.0853L48.9387 48.9434L50.5269 31.1437L50.6931 29.3281H34.9759ZM34.9759 15.6431V22.4046H51.3078L51.4434 20.8865L51.7519 17.4587L51.9137 15.6431H34.9759Z" fill="white"/>
</svg>
