<svg width="70" height="70" viewBox="0 0 70 70" fill="none" xmlns="http://www.w3.org/2000/svg">
<g clip-path="url(#clip0_193_1426)">
<path d="M0 0.000488281H70V70.0005H0V0.000488281Z" fill="#F7DF1E"/>
<path d="M18.4056 58.4977L23.7623 55.2558C24.7959 57.0881 25.736 58.6385 27.991 58.6385C30.1525 58.6385 31.5156 57.793 31.5156 54.5041V32.1375H38.0937V54.5971C38.0937 61.4103 34.0999 64.5117 28.2729 64.5117C23.0106 64.5117 19.956 61.7863 18.4054 58.4971M41.6667 57.7928L47.0228 54.6917C48.4329 56.9943 50.2655 58.6858 53.5074 58.6858C56.2333 58.6858 57.9712 57.323 57.9712 55.4434C57.9712 53.1881 56.1857 52.3891 53.1784 51.0738L51.5342 50.3684C46.7882 48.3485 43.6401 45.811 43.6401 40.4544C43.6401 35.5205 47.399 31.7612 53.2728 31.7612C57.4547 31.7612 60.462 33.2181 62.6232 37.0241L57.5012 40.3135C56.3733 38.2931 55.1521 37.4944 53.2725 37.4944C51.3458 37.4944 50.1241 38.7161 50.1241 40.3135C50.1241 42.2869 51.3458 43.0862 54.165 44.3079L55.8094 45.0126C61.4012 47.4092 64.5493 49.8524 64.5493 55.3496C64.5493 61.2706 59.8976 64.5125 53.6482 64.5125C47.5399 64.5125 43.5928 61.5993 41.6664 57.793" fill="black"/>
</g>
<defs>
<clipPath id="clip0_193_1426">
<rect width="70" height="70" fill="white" transform="translate(0 0.000488281)"/>
</clipPath>
</defs>
</svg>
