<svg width="70" height="70" viewBox="0 0 70 70" fill="none" xmlns="http://www.w3.org/2000/svg">
<path d="M57.5539 22.6657C56.809 22.3787 56.0577 22.1129 55.3008 21.8684C55.428 21.285 55.545 20.7088 55.6489 20.1426C57.3546 10.8458 56.2395 3.35614 52.4308 0.890172C48.7791 -1.47386 42.8069 0.99118 36.7754 6.885C36.181 7.4669 35.5998 8.06557 35.0323 8.68043C34.6524 8.27157 34.2657 7.87064 33.8726 7.47785C27.5513 1.17601 21.2152 -1.48 17.4106 0.993023C13.7621 3.36443 12.6818 10.4053 14.2174 19.216C14.3702 20.0887 14.5427 20.9568 14.7347 21.8196C13.8379 22.1057 12.9724 22.4103 12.1442 22.7345C4.73293 25.6358 0 30.1824 0 34.8985C0 39.7693 5.08102 44.6549 12.8002 47.6173C13.426 47.8565 14.057 48.0781 14.6926 48.282C14.4862 49.2113 14.3029 50.1468 14.143 51.0875C12.679 59.7454 13.8223 66.6199 17.4609 68.9762C21.219 71.4096 27.5267 68.9087 33.6684 62.8804C34.1664 62.3903 34.6534 61.8863 35.1291 61.3689C35.7436 62.0347 36.3746 62.6811 37.0212 63.3075C42.9707 69.0554 48.8463 71.3765 52.4814 69.0137C56.236 66.5732 57.4563 59.1882 55.872 50.2033C55.7472 49.4994 55.6073 48.799 55.4523 48.1027C55.8953 47.9553 56.33 47.8037 56.7539 47.6459C64.7787 44.6607 70 39.8344 70 34.8985C70 30.1652 65.1142 25.5879 57.5539 22.6657ZM55.8135 44.459C55.4307 44.6012 55.038 44.7384 54.6377 44.872C53.7518 41.7229 52.5563 38.3746 51.0932 34.9148C52.4893 31.5376 53.6389 28.2319 54.4999 25.1034C55.2161 25.3361 55.9109 25.5814 56.5808 25.8403C63.0585 28.3443 67.0097 32.046 67.0097 34.8985C67.0097 37.9367 62.7424 41.881 55.8135 44.459ZM52.9386 50.8554C53.6391 54.8282 53.7389 58.4203 53.2749 61.2286C52.8582 63.752 52.0198 65.4342 50.983 66.1081C48.7771 67.5418 44.0595 65.6782 38.9717 60.7623C38.3702 60.18 37.7833 59.579 37.2116 58.9601C39.1841 56.538 41.1553 53.7224 43.0793 50.5951C46.4633 50.258 49.6604 49.7066 52.5596 48.9541C52.6993 49.5844 52.8256 50.2184 52.9386 50.8554ZM23.8645 65.8603C21.7093 66.7147 19.9927 66.7393 18.955 66.0675C16.747 64.6378 15.829 59.1179 17.0811 51.7139C17.2299 50.8389 17.4003 49.9688 17.5921 49.1045C20.4594 49.8168 23.6332 50.3289 27.0252 50.6378C28.9622 53.6978 30.9903 56.5104 33.0343 58.9733C32.5999 59.4452 32.1552 59.9051 31.7007 60.3524C28.9846 63.0179 26.2631 64.9092 23.8645 65.8603ZM13.7676 44.4403C10.3543 43.1303 7.53539 41.4278 5.60328 39.5701C3.86695 37.9008 2.99059 36.2432 2.99059 34.8985C2.99059 32.0365 6.79055 28.386 13.1286 25.905C13.8977 25.6042 14.7027 25.3202 15.5381 25.0537C16.4142 28.2528 17.5632 31.5978 18.9498 34.9802C17.5451 38.4126 16.3797 41.811 15.4952 45.0479C14.915 44.8613 14.3389 44.6587 13.7676 44.4403ZM17.1522 18.571C15.8367 11.0224 16.7103 5.32811 18.909 3.89894C21.2507 2.37675 26.4291 4.54706 31.8872 9.98864C32.2431 10.3443 32.5933 10.7071 32.9375 11.077C30.9036 13.5292 28.8941 16.3209 26.9743 19.3628C23.6821 19.7054 20.5308 20.2556 17.6334 20.9928C17.4549 20.1903 17.2945 19.3829 17.1522 18.5713V18.571ZM47.3471 26.9428C46.6627 25.6155 45.953 24.3049 45.2184 23.012C47.4518 23.3292 49.5917 23.7501 51.6012 24.2646C50.998 26.4359 50.2461 28.7057 49.3609 31.0328C48.714 29.6546 48.0425 28.2909 47.3471 26.9428ZM35.0336 13.4767C36.4129 15.1545 37.7943 17.0276 39.153 19.0601C36.3967 18.9139 33.6359 18.9133 30.8796 19.0582C32.2396 17.0445 33.6328 15.1739 35.0336 13.4767ZM22.6412 26.9658C21.9544 28.3031 21.2955 29.6582 20.665 31.0301C19.7944 28.7112 19.0493 26.431 18.4409 24.229C20.4381 23.7274 22.5679 23.3172 24.7871 23.0059C24.0443 24.3067 23.3288 25.6269 22.6412 26.9655V26.9658ZM24.8508 47.03C22.558 46.7426 20.3962 46.3536 18.3996 45.8655C19.0176 43.6243 19.7791 41.2955 20.6686 38.9269C21.3016 40.2997 21.9632 41.6557 22.6529 42.9936C23.3622 44.3691 24.0967 45.7163 24.8508 47.03ZM35.1162 56.5568C33.6987 54.8399 32.285 52.9404 30.9045 50.8975C32.2448 50.9564 33.6112 50.9865 35 50.9865C36.4268 50.9865 37.8372 50.9506 39.2254 50.8812C37.8623 52.961 36.4861 54.8632 35.1162 56.5568ZM49.3891 38.8059C50.3248 41.2007 51.1134 43.5171 51.7396 45.72C49.7101 46.24 47.5188 46.6588 45.2099 46.9698C45.9497 45.6529 46.6662 44.3195 47.3588 42.9706C48.063 41.5995 48.7399 40.2109 49.3891 38.8059ZM44.7686 41.2931C43.7082 43.3613 42.5883 45.3902 41.4105 47.3766C39.277 47.5463 37.1388 47.6306 35 47.6293C32.8215 47.6293 30.7027 47.5532 28.6623 47.4046C27.4537 45.4227 26.3124 43.3902 25.2407 41.3115H25.241C24.1744 39.2438 23.1781 37.1313 22.2543 34.9786C23.1757 32.8255 24.169 30.712 25.232 28.6427L25.2317 28.643C26.2943 26.5732 27.4265 24.5494 28.6259 22.576C30.7076 22.3992 32.8423 22.3071 34.9997 22.3071H35C37.1673 22.3071 39.3047 22.4001 41.3859 22.5782C42.5731 24.5486 43.6981 26.5654 44.7587 28.6249C45.8252 30.6897 46.8316 32.7928 47.7764 34.931C46.8414 37.0911 45.8381 39.2132 44.7686 41.2931ZM50.9373 3.79886C53.2812 5.31675 54.1928 11.4378 52.7201 19.4647C52.6261 19.9768 52.5205 20.4985 52.4057 21.0275C49.5012 20.2746 46.3477 19.715 43.0459 19.3671C41.1225 16.2917 39.1295 13.4957 37.1287 11.0752C37.6531 10.5077 38.1899 9.95485 38.7387 9.41728C43.9067 4.36776 48.7367 2.37399 50.9373 3.79886ZM35 27.8801C38.4521 27.8801 41.2508 31.0224 41.2508 34.8985C41.2508 38.7746 38.4521 41.9169 35 41.9169C31.5479 41.9169 28.7492 38.7746 28.7492 34.8985C28.7492 31.0224 31.5479 27.8801 35 27.8801Z" fill="#00D8FF"/>
</svg>
