<svg width="70" height="70" viewBox="0 0 70 70" fill="none" xmlns="http://www.w3.org/2000/svg">
<g clip-path="url(#clip0_193_1454)">
<path d="M5.46875 0.000488281H64.5312C67.5516 0.000488281 70 2.44885 70 5.46924V64.5317C70 67.5521 67.5516 70.0005 64.5312 70.0005H5.46875C2.44836 70.0005 0 67.5521 0 64.5317V5.46924C0 2.44885 2.44836 0.000488281 5.46875 0.000488281Z" fill="#3178C6"/>
<path d="M41.1573 54.8179V62.3702C42.3855 62.9997 43.8383 63.4716 45.5153 63.7863C47.1923 64.1011 48.9598 64.2583 50.8181 64.2583C52.6288 64.2583 54.3493 64.0852 55.9789 63.739C57.6086 63.3929 59.0379 62.8225 60.2659 62.0281C61.4942 61.2335 62.4665 60.195 63.1832 58.9126C63.8996 57.6304 64.2578 56.0453 64.2578 54.1572C64.2578 52.7884 64.053 51.5886 63.6437 50.558C63.2388 49.5344 62.6369 48.6002 61.8721 47.8086C61.1007 47.006 60.1754 46.2863 59.097 45.649C58.0182 45.0119 56.8017 44.41 55.4474 43.8437C54.4554 43.4344 53.5659 43.0374 52.7784 42.6518C51.9911 42.2663 51.3218 41.8731 50.7708 41.4717C50.2195 41.0705 49.7943 40.6456 49.4952 40.1972C49.1961 39.7487 49.0465 39.2415 49.0465 38.6749C49.0465 38.1557 49.1802 37.6878 49.4479 37.2708C49.7156 36.8538 50.0938 36.4959 50.5818 36.1971C51.0699 35.8979 51.6682 35.666 52.377 35.5006C53.0854 35.3354 53.8729 35.2529 54.7389 35.2529C55.3689 35.2529 56.0342 35.3002 56.7347 35.3945C57.4355 35.4888 58.1402 35.6343 58.8489 35.8312C59.5554 36.027 60.2462 36.2756 60.9156 36.5747C61.5646 36.8623 62.1854 37.2099 62.7698 37.6129V30.5563C61.6202 30.1158 60.3643 29.7893 59.0023 29.5769C57.6404 29.3644 56.0774 29.2583 54.3137 29.2583C52.5186 29.2583 50.8181 29.4511 49.2119 29.8366C47.6057 30.2219 46.1923 30.8237 44.972 31.6419C43.7516 32.4603 42.7872 33.5026 42.0785 34.7692C41.37 36.0357 41.0156 37.55 41.0156 39.3123C41.0156 41.5622 41.665 43.4817 42.9644 45.0709C44.2635 46.6599 46.2355 48.0052 48.8811 49.1066C49.8577 49.5043 50.8263 49.9214 51.7863 50.3576C52.684 50.7666 53.4595 51.1913 54.113 51.6318C54.7665 52.0723 55.2822 52.5522 55.6601 53.0714C56.038 53.5907 56.227 54.1808 56.227 54.8417C56.2301 55.3173 56.1079 55.7854 55.8726 56.1987C55.6366 56.6154 55.2781 56.9775 54.798 57.2843C54.3178 57.5911 53.7193 57.8309 53.0029 58.004C52.2864 58.177 51.4478 58.2637 50.4872 58.2637C48.8496 58.2637 47.2279 57.9766 45.6217 57.4021C44.0152 56.8279 42.5272 55.9666 41.1573 54.8179ZM28.5693 36.0237H38.2812V29.8052H11.2109V36.0237H20.8756V63.7114H28.5693V36.0237Z" fill="white"/>
</g>
<defs>
<clipPath id="clip0_193_1454">
<rect width="70" height="70" fill="white" transform="translate(0 0.000488281)"/>
</clipPath>
</defs>
</svg>
