<svg width="302" height="533" viewBox="0 0 302 533" fill="none" xmlns="http://www.w3.org/2000/svg">
<path d="M244.282 405.208L244.272 405.448L256.282 532.448H168.642L157.282 454.448L152.282 530.448L62.2825 529.448L71.8425 429.668L79.9725 383.418V383.408L81.1924 376.448H241.892L242.102 378.968L244.282 405.208Z" fill="#2F2E41"/>
<path d="M12.6743 478.831C21.9561 480.522 31.6345 470.069 34.2919 455.483C35.4552 449.098 35.0797 442.98 33.5117 437.977L34.9349 429.569L58.8183 316.46C58.8183 316.46 102.799 228.484 102.797 213.211C102.796 197.938 90.0751 190.448 90.0751 190.448L72.8608 190.609L18.8781 322.456L9.15598 419.886L7.58309 433.253C4.35149 437.382 1.84256 442.974 0.679765 449.359C-1.97772 463.945 3.39251 477.14 12.6743 478.831Z" fill="#FFB6B6"/>
<path d="M187.782 135.948L171.782 98.9482L119.782 107.948L116.282 151.48L187.782 135.948Z" fill="#FFB6B6"/>
<path opacity="0.1" d="M187.782 135.948L171.782 98.9482L119.782 107.948L116.282 151.48L187.782 135.948Z" fill="black"/>
<path d="M300.783 212.948C300.783 212.948 263.783 143.948 256.783 136.948C253.667 133.832 248.768 133.789 244.29 134.697L192.783 116.948L175.325 107.139L174.174 125.801L116.859 136.089C117.177 124.708 118.783 120.379 118.783 120.379L97.7827 144.948L56.7827 164.948L56.8052 165.128C53.7964 166.179 50.9438 167.976 48.7827 170.948C40.7827 181.948 18.7827 315.948 18.7827 315.948L65.7827 325.948L72.1792 285.809L76.7827 321.948L80.2827 389.448C80.2827 389.448 144.283 444.448 175.283 424.448C206.283 404.448 244.283 405.448 244.283 405.448L245.231 374.16C245.906 373.082 246.283 372.448 246.283 372.448L245.283 261.464V231.932C252.901 242.546 262.094 251.673 272.783 255.948C307.783 269.948 300.783 212.948 300.783 212.948V212.948Z" fill="#E6E6E6"/>
<path d="M140.347 114.458C166.768 114.458 188.186 93.0404 188.186 66.62C188.186 40.1995 166.768 18.7815 140.347 18.7815C113.927 18.7815 92.5089 40.1995 92.5089 66.62C92.5089 93.0404 113.927 114.458 140.347 114.458Z" fill="#FFB6B6"/>
<path d="M174.666 80.1395C174.666 80.1395 178.826 65.58 188.186 66.6199C197.546 67.6599 199.626 59.3402 197.546 55.1803C195.466 51.0204 191.306 30.2211 191.306 30.2211C191.306 30.2211 193.386 15.6615 180.906 13.5816C168.427 11.5017 164.267 9.42173 162.187 5.26186C160.107 1.10199 128.908 -3.05788 118.508 3.18193C108.108 9.42173 99.7887 21.3936 92.5089 24.7674C85.2292 28.1411 78.9894 34.3809 83.1492 44.7806C87.3091 55.1803 93.3421 75.5198 93.3421 75.5198C93.3421 75.5198 103.949 71.8198 106.029 78.0596C108.108 84.2994 99.7887 75.9796 110.188 59.3401C120.588 42.7007 120.588 26.0612 137.228 32.301C153.867 38.5408 172.586 36.4609 170.506 48.9405C168.427 61.4201 174.666 80.1395 174.666 80.1395V80.1395Z" fill="#2F2E41"/>
<path d="M216.065 118.141C242.976 118.141 264.791 96.7847 264.791 70.4408C264.791 44.097 242.976 22.7411 216.065 22.7411C189.154 22.7411 167.339 44.097 167.339 70.4408C167.339 96.7847 189.154 118.141 216.065 118.141Z" fill="#E1E8ED"/>
<path d="M232.603 46.3808C226.116 58.1929 219.629 70.0052 213.142 81.8174C209.007 74.5124 204.896 67.1945 200.751 59.8953C199.32 57.3744 195.426 59.6418 196.861 62.169C201.666 70.6304 206.42 79.1201 211.225 87.5815C212.046 89.0283 214.302 89.0619 215.115 87.5815C222.241 74.6058 229.367 61.6301 236.493 48.6545C237.889 46.1119 234 43.8363 232.603 46.3808Z" fill="#1DA1F2"/>
<path d="M283.33 196.172L234.783 172.948C234.783 172.948 232.833 157.405 223.729 151.86C222.181 148.168 220.4 144.111 218.783 140.897C214.783 132.948 220.783 117.948 215.783 117.948C210.783 117.948 203.391 133.724 203.783 137.948C204.083 141.191 206.763 146.853 207.317 151.809C201.22 154.109 196.301 158.05 193.067 161.188C190.269 163.904 189.229 167.956 190.322 171.699C193.492 182.546 201.414 204.948 212.783 204.948C227.783 204.948 231.783 201.948 231.783 201.948C231.783 201.948 262.783 240.948 285.783 243.948C308.783 246.948 283.33 196.172 283.33 196.172V196.172Z" fill="#FFB6B6"/>
</svg>
