<svg width="401" height="231" viewBox="0 0 401 231" fill="none" xmlns="http://www.w3.org/2000/svg">
<path d="M381.949 230.259H18.6332C8.35866 230.259 0 221.9 0 211.626V18.6332C0 8.35941 8.35866 0 18.6332 0H381.949C392.224 0 400.583 8.35941 400.583 18.6332V211.626C400.583 221.9 392.224 230.259 381.949 230.259Z" fill="white"/>
<path d="M381.949 230.259H18.6332C8.35866 230.259 0 221.9 0 211.626V18.6332C0 8.35941 8.35866 0 18.6332 0H381.949C392.224 0 400.583 8.35941 400.583 18.6332V211.626C400.583 221.9 392.224 230.259 381.949 230.259ZM18.6332 3.1116C10.0748 3.1116 3.11161 10.0747 3.11161 18.6332V211.626C3.11161 220.185 10.0748 227.148 18.6332 227.148H381.949C390.508 227.148 397.471 220.185 397.471 211.626V18.6332C397.471 10.0747 390.508 3.1116 381.949 3.1116H18.6332Z" fill="#3F3D56"/>
<path d="M353.908 23.3371C356.486 23.3371 358.576 21.2474 358.576 18.6697C358.576 16.0919 356.486 14.0023 353.908 14.0023C351.331 14.0023 349.241 16.0919 349.241 18.6697C349.241 21.2474 351.331 23.3371 353.908 23.3371Z" fill="#3F3D56"/>
<path d="M366.355 23.3371C368.933 23.3371 371.022 21.2474 371.022 18.6697C371.022 16.0919 368.933 14.0023 366.355 14.0023C363.777 14.0023 361.688 16.0919 361.688 18.6697C361.688 21.2474 363.777 23.3371 366.355 23.3371Z" fill="#3F3D56"/>
<path d="M378.801 23.3371C381.379 23.3371 383.469 21.2474 383.469 18.6697C383.469 16.0919 381.379 14.0023 378.801 14.0023C376.224 14.0023 374.134 16.0919 374.134 18.6697C374.134 21.2474 376.224 23.3371 378.801 23.3371Z" fill="#3F3D56"/>
<path d="M26.4487 94.1263C25.1618 94.1263 24.115 95.1732 24.115 96.4601C24.115 97.0875 24.3573 97.6679 24.7972 98.0964C25.2408 98.5507 25.822 98.7938 26.4487 98.7938H375.69C376.977 98.7938 378.023 97.7469 378.023 96.4601C378.023 95.8326 377.781 95.2522 377.341 94.8237C376.898 94.3695 376.316 94.1263 375.69 94.1263H26.4487Z" fill="#E6E6E6"/>
<path d="M371.8 81.6798H340.684C337.253 81.6798 334.461 78.8888 334.461 75.4566C334.461 72.0244 337.253 69.2334 340.684 69.2334H371.8C375.232 69.2334 378.023 72.0244 378.023 75.4566C378.023 78.8888 375.232 81.6798 371.8 81.6798Z" fill="#E6E6E6"/>
<path d="M167.99 49.0079H28.7824C25.351 49.0079 22.5592 46.2169 22.5592 42.7847C22.5592 39.3525 25.351 36.5615 28.7824 36.5615H167.99C171.421 36.5615 174.213 39.3525 174.213 42.7847C174.213 46.2169 171.421 49.0079 167.99 49.0079Z" fill="#E6E6E6"/>
<path d="M26.4487 164.138C25.1618 164.138 24.115 165.185 24.115 166.471C24.115 167.099 24.3573 167.679 24.7972 168.108C25.2408 168.562 25.822 168.805 26.4487 168.805H375.69C376.977 168.805 378.023 167.758 378.023 166.471C378.023 165.844 377.781 165.264 377.341 164.835C376.898 164.381 376.316 164.138 375.69 164.138H26.4487Z" fill="#E6E6E6"/>
<path d="M371.8 151.691H340.684C337.253 151.691 334.461 148.9 334.461 145.468C334.461 142.036 337.253 139.245 340.684 139.245H371.8C375.232 139.245 378.023 142.036 378.023 145.468C378.023 148.9 375.232 151.691 371.8 151.691Z" fill="#E6E6E6"/>
</svg>
