<svg width="587" height="487" viewBox="0 0 587 487" fill="none" xmlns="http://www.w3.org/2000/svg">
<g clip-path="url(#clip0_101_658)">
<path d="M354.177 450.607C362.675 456.402 372.358 485.695 372.358 485.695C372.358 485.695 342.049 487.706 333.553 481.914C331.532 480.537 329.797 478.768 328.448 476.708C327.099 474.648 326.162 472.338 325.69 469.909C325.219 467.481 325.222 464.982 325.7 462.555C326.178 460.128 327.121 457.82 328.475 455.764C329.83 453.708 331.569 451.943 333.594 450.571C335.619 449.199 337.89 448.246 340.276 447.768C342.663 447.289 345.119 447.293 347.505 447.78C349.89 448.267 352.157 449.228 354.177 450.607V450.607Z" fill="#F1F1F1"/>
<path d="M372.703 485.475L372.228 485.86C354.908 463.752 328.772 456.115 328.51 456.041L328.673 455.446C328.937 455.521 355.257 463.206 372.703 485.475Z" fill="white"/>
<path d="M399.625 438.921C399.083 453.317 372.188 486.191 372.188 486.191C372.188 486.191 347.858 451.31 348.398 436.92C348.659 430.007 351.607 423.484 356.595 418.784C361.583 414.084 368.202 411.592 374.995 411.858C381.788 412.123 388.199 415.124 392.818 420.199C397.437 425.274 399.886 432.009 399.625 438.921Z" fill="#F1F1F1"/>
<path d="M372.694 486.444L371.903 486.155C384.933 449.339 374.804 412.458 374.7 412.09L375.508 411.854C375.612 412.224 385.819 449.361 372.694 486.444Z" fill="white"/>
<path d="M303.054 357.011H72.5504C68.4438 357.006 64.5068 355.344 61.603 352.389C58.6992 349.434 57.0659 345.428 57.0612 341.25V73.2145C57.0659 69.036 58.6992 65.03 61.603 62.0753C64.5068 59.1206 68.4438 57.4586 72.5504 57.4539H303.054C307.16 57.4586 311.097 59.1206 314.001 62.0753C316.905 65.0299 318.538 69.036 318.543 73.2145V341.25C318.538 345.428 316.905 349.434 314.001 352.389C311.097 355.344 307.16 357.006 303.054 357.011Z" fill="#E6E6E6"/>
<path d="M292.283 343.875H83.3212C79.6751 343.871 76.1794 342.395 73.6012 339.772C71.0229 337.148 69.5727 333.591 69.5685 329.881V84.5833C69.5727 80.8733 71.0229 77.3163 73.6012 74.6929C76.1794 72.0695 79.6751 70.5938 83.3212 70.5896H292.283C295.929 70.5938 299.424 72.0695 302.003 74.6929C304.581 77.3163 306.031 80.8733 306.035 84.5833V329.881C306.031 333.591 304.581 337.148 302.003 339.772C299.424 342.395 295.929 343.871 292.283 343.875Z" fill="white"/>
<path d="M283.97 105.502H178.555C178.103 105.503 177.655 105.413 177.238 105.237C176.82 105.062 176.44 104.804 176.121 104.479C175.801 104.154 175.547 103.769 175.374 103.344C175.201 102.919 175.112 102.464 175.112 102.004C175.112 101.544 175.201 101.089 175.374 100.664C175.547 100.239 175.801 99.8536 176.121 99.5287C176.44 99.2038 176.82 98.9462 177.238 98.7707C177.655 98.5952 178.103 98.5052 178.555 98.5059H283.97C284.422 98.5052 284.869 98.5952 285.287 98.7707C285.705 98.9462 286.084 99.2038 286.404 99.5287C286.724 99.8536 286.977 100.239 287.15 100.664C287.323 101.089 287.413 101.544 287.413 102.004C287.413 102.464 287.323 102.919 287.15 103.344C286.977 103.769 286.724 104.154 286.404 104.479C286.084 104.804 285.705 105.062 285.287 105.237C284.869 105.413 284.422 105.503 283.97 105.502Z" fill="#E4E4E4"/>
<path d="M283.97 119.325H178.555C177.643 119.325 176.768 118.957 176.124 118.301C175.479 117.645 175.117 116.755 175.117 115.827C175.117 114.899 175.479 114.009 176.124 113.353C176.768 112.697 177.643 112.329 178.555 112.329H283.97C284.882 112.329 285.756 112.697 286.401 113.353C287.046 114.009 287.408 114.899 287.408 115.827C287.408 116.755 287.046 117.645 286.401 118.301C285.756 118.957 284.882 119.325 283.97 119.325Z" fill="#E4E4E4"/>
<path d="M224.25 133.148H178.555C177.643 133.148 176.768 132.78 176.124 132.124C175.479 131.468 175.117 130.578 175.117 129.65C175.117 128.722 175.479 127.832 176.124 127.176C176.768 126.52 177.643 126.152 178.555 126.152H224.25C225.161 126.152 226.036 126.52 226.681 127.176C227.325 127.832 227.688 128.722 227.688 129.65C227.688 130.578 227.325 131.468 226.681 132.124C226.036 132.78 225.161 133.148 224.25 133.148Z" fill="#E4E4E4"/>
<path d="M271.258 188.978H104.84C104.389 188.978 103.941 188.888 103.523 188.713C103.106 188.537 102.726 188.28 102.406 187.955C102.087 187.63 101.833 187.244 101.66 186.819C101.487 186.394 101.398 185.939 101.398 185.479C101.398 185.02 101.487 184.564 101.66 184.14C101.833 183.715 102.087 183.329 102.406 183.004C102.726 182.679 103.106 182.422 103.523 182.246C103.941 182.071 104.389 181.981 104.84 181.981H271.258C271.71 181.981 272.157 182.071 272.575 182.246C272.993 182.422 273.372 182.679 273.692 183.004C274.012 183.329 274.265 183.715 274.439 184.14C274.612 184.564 274.701 185.02 274.701 185.479C274.701 185.939 274.612 186.394 274.439 186.819C274.265 187.244 274.012 187.63 273.692 187.955C273.372 188.28 272.993 188.537 272.575 188.713C272.157 188.888 271.71 188.978 271.258 188.978Z" fill="#E4E4E4"/>
<path d="M271.258 202.801H104.84C103.929 202.801 103.054 202.432 102.409 201.776C101.765 201.12 101.402 200.23 101.402 199.302C101.402 198.374 101.765 197.485 102.409 196.829C103.054 196.173 103.929 195.804 104.84 195.804H271.258C272.17 195.804 273.044 196.173 273.689 196.829C274.334 197.485 274.696 198.374 274.696 199.302C274.696 200.23 274.334 201.12 273.689 201.776C273.044 202.432 272.17 202.801 271.258 202.801Z" fill="#E4E4E4"/>
<path d="M271.258 234.178H104.84C103.929 234.178 103.054 233.81 102.409 233.154C101.765 232.498 101.403 231.608 101.403 230.68C101.403 229.752 101.765 228.863 102.409 228.206C103.054 227.55 103.929 227.182 104.84 227.182H271.258C272.17 227.182 273.044 227.55 273.689 228.206C274.334 228.863 274.696 229.752 274.696 230.68C274.696 231.608 274.334 232.498 273.689 233.154C273.044 233.81 272.17 234.178 271.258 234.178Z" fill="#E4E4E4"/>
<path d="M271.258 248.001H104.84C103.929 248.001 103.054 247.633 102.409 246.977C101.765 246.321 101.402 245.431 101.402 244.503C101.402 243.575 101.765 242.685 102.409 242.029C103.054 241.373 103.929 241.005 104.84 241.005H271.258C272.17 241.005 273.044 241.373 273.689 242.029C274.334 242.685 274.696 243.575 274.696 244.503C274.696 245.431 274.334 246.321 273.689 246.977C273.044 247.633 272.17 248.001 271.258 248.001Z" fill="#E4E4E4"/>
<path d="M271.258 279.379H104.84C103.929 279.379 103.054 279.011 102.409 278.355C101.765 277.699 101.403 276.809 101.403 275.881C101.403 274.953 101.765 274.063 102.409 273.407C103.054 272.751 103.929 272.383 104.84 272.383H271.258C272.17 272.383 273.044 272.751 273.689 273.407C274.334 274.063 274.696 274.953 274.696 275.881C274.696 276.809 274.334 277.699 273.689 278.355C273.044 279.011 272.17 279.379 271.258 279.379Z" fill="#E4E4E4"/>
<path d="M271.258 293.202H104.84C103.929 293.202 103.054 292.833 102.409 292.177C101.765 291.521 101.402 290.632 101.402 289.704C101.402 288.776 101.765 287.886 102.409 287.23C103.054 286.574 103.929 286.205 104.84 286.205H271.258C272.17 286.205 273.044 286.574 273.689 287.23C274.334 287.886 274.696 288.776 274.696 289.704C274.696 290.632 274.334 291.521 273.689 292.177C273.044 292.833 272.17 293.202 271.258 293.202Z" fill="#E4E4E4"/>
<path d="M271.228 331.492H225.534C224.622 331.492 223.747 331.123 223.103 330.467C222.458 329.811 222.096 328.921 222.096 327.993C222.096 327.065 222.458 326.176 223.103 325.52C223.747 324.863 224.622 324.495 225.534 324.495H271.228C272.14 324.495 273.015 324.863 273.66 325.52C274.304 326.176 274.667 327.065 274.667 327.993C274.667 328.921 274.304 329.811 273.66 330.467C273.015 331.123 272.14 331.492 271.228 331.492Z" fill="#6C63FF"/>
<path d="M149.374 116.237C149.384 123.749 146.884 131.042 142.285 136.92C140.798 138.833 139.104 140.57 137.237 142.1C132.14 146.307 125.912 148.848 119.371 149.391C118.48 149.47 117.582 149.505 116.678 149.505C114.885 149.506 113.096 149.355 111.328 149.056C110.704 148.956 110.094 148.835 109.484 148.692C108.422 148.452 107.374 148.154 106.343 147.8C103 146.668 99.8595 144.991 97.0449 142.835C96.2947 142.264 95.5727 141.657 94.8715 141.015C94.0139 140.241 93.2015 139.417 92.4383 138.547C92.2349 138.318 92.0315 138.083 91.8353 137.847C88.414 133.773 86.011 128.918 84.8309 123.695C83.6507 118.472 83.7284 113.036 85.0574 107.85C86.3863 102.664 88.9271 97.8821 92.4634 93.9105C95.9997 89.939 100.427 86.8958 105.368 85.04C110.309 83.1842 115.618 82.5708 120.842 83.252C126.066 83.9332 131.051 85.8888 135.372 88.9524C139.694 92.0159 143.224 96.0967 145.662 100.847C148.1 105.598 149.373 110.877 149.374 116.237L149.374 116.237Z" fill="#E4E4E4"/>
<path d="M115.54 127.591C122.94 127.591 128.939 121.487 128.939 113.957C128.939 106.427 122.94 100.323 115.54 100.323C108.14 100.323 102.141 106.427 102.141 113.957C102.141 121.487 108.14 127.591 115.54 127.591Z" fill="#9E616A"/>
<path d="M130.456 107.311C130.517 106.093 130.179 104.888 129.496 103.886L129.012 103.187C127.266 99.7626 124.384 96.6804 122.274 94.4258C120.689 92.7349 119.104 91.9216 117.582 92.0001C116.475 92.0805 115.444 92.6038 114.715 93.4555C112.711 93.331 110.715 93.804 108.971 94.8166C107.228 95.8291 105.812 97.3372 104.898 99.1561C98.4825 102.602 100.397 112.776 100.418 112.883L101.968 115.53L102.143 115.195C102.143 115.188 102.164 115.159 102.192 115.102C102.493 114.553 104.134 111.499 105.242 109.566C105.646 108.906 106.184 108.342 106.82 107.91C107.857 107.189 109.05 106.731 110.297 106.576L113.705 106.127L112.415 108.096H121.698L125.267 107.668C125.625 109.159 128.458 114.945 128.801 115.644L128.829 115.701L129.019 116.094L130.078 113.133C130.696 111.258 130.826 109.252 130.456 107.311Z" fill="#2F2E41"/>
<path d="M97.1432 142.906C97.7182 142.135 100.698 138.539 107.556 136.635L111.188 132.518L125.751 130.156L133.163 134.323L142.285 136.92C140.798 138.833 139.104 140.57 137.237 142.1C132.14 146.307 125.912 148.848 119.371 149.391C118.48 149.47 117.583 149.505 116.678 149.505C114.886 149.506 113.096 149.356 111.328 149.056C110.704 148.956 110.094 148.835 109.484 148.692C108.422 148.452 107.374 148.154 106.343 147.8C103.037 146.683 99.9311 145.03 97.1432 142.906C97.1082 142.884 97.0801 142.856 97.0451 142.835L97.1432 142.906Z" fill="#6C63FF"/>
<path d="M373.523 16.687H2.08057C1.52895 16.6864 1.0001 16.4631 0.610049 16.0662C0.219997 15.6694 0.000597522 15.1312 -3.8147e-06 14.57V2.11703C0.000597522 1.55574 0.219997 1.01763 0.610049 0.620738C1.0001 0.223851 1.52895 0.000611875 2.08057 0H373.523C374.075 0.000611875 374.604 0.223851 374.994 0.620738C375.384 1.01763 375.603 1.55574 375.604 2.11703V14.57C375.603 15.1312 375.384 15.6694 374.994 16.0662C374.604 16.4631 374.075 16.6864 373.523 16.687Z" fill="#6C63FF"/>
<path d="M12.0744 10.7418C13.7058 10.7418 15.0283 9.39609 15.0283 7.73612C15.0283 6.07614 13.7058 4.73047 12.0744 4.73047C10.443 4.73047 9.12054 6.07614 9.12054 7.73612C9.12054 9.39609 10.443 10.7418 12.0744 10.7418Z" fill="white"/>
<path d="M23.2864 10.7418C24.9178 10.7418 26.2403 9.39609 26.2403 7.73612C26.2403 6.07614 24.9178 4.73047 23.2864 4.73047C21.655 4.73047 20.3325 6.07614 20.3325 7.73612C20.3325 9.39609 21.655 10.7418 23.2864 10.7418Z" fill="white"/>
<path d="M34.4989 10.7418C36.1303 10.7418 37.4528 9.39609 37.4528 7.73612C37.4528 6.07614 36.1303 4.73047 34.4989 4.73047C32.8675 4.73047 31.545 6.07614 31.545 7.73612C31.545 9.39609 32.8675 10.7418 34.4989 10.7418Z" fill="white"/>
<path d="M362.538 5.66736H349.627C349.375 5.66517 349.134 5.56167 348.956 5.37941C348.778 5.19715 348.679 4.95089 348.679 4.69424C348.679 4.43758 348.778 4.19131 348.956 4.00906C349.134 3.8268 349.375 3.7233 349.627 3.72111H362.538C362.664 3.72 362.79 3.74437 362.907 3.79278C363.024 3.84119 363.13 3.91269 363.22 4.00317C363.309 4.09364 363.38 4.20128 363.429 4.3199C363.478 4.43851 363.503 4.56574 363.503 4.69424C363.503 4.82274 363.478 4.94996 363.429 5.06857C363.38 5.18719 363.309 5.29484 363.22 5.38531C363.13 5.47578 363.024 5.54729 362.907 5.5957C362.79 5.64411 362.664 5.66846 362.538 5.66736Z" fill="white"/>
<path d="M362.538 9.31653H349.627C349.373 9.31653 349.13 9.21401 348.951 9.03151C348.771 8.84901 348.671 8.60149 348.671 8.3434C348.671 8.08531 348.771 7.83779 348.951 7.6553C349.13 7.4728 349.373 7.37027 349.627 7.37027H362.538C362.664 7.36917 362.79 7.39353 362.907 7.44194C363.024 7.49035 363.13 7.56186 363.22 7.65233C363.309 7.7428 363.38 7.85045 363.429 7.96907C363.478 8.08768 363.503 8.2149 363.503 8.3434C363.503 8.4719 363.478 8.59913 363.429 8.71774C363.38 8.83636 363.309 8.94401 363.22 9.03448C363.13 9.12495 363.024 9.19646 362.907 9.24487C362.79 9.29328 362.664 9.31763 362.538 9.31653Z" fill="white"/>
<path d="M362.538 12.9658H349.627C349.375 12.9637 349.133 12.8603 348.956 12.678C348.778 12.4957 348.678 12.2494 348.678 11.9927C348.678 11.7359 348.778 11.4896 348.956 11.3073C349.133 11.1251 349.375 11.0216 349.627 11.0195H362.538C362.79 11.0216 363.032 11.1251 363.209 11.3073C363.387 11.4896 363.487 11.7359 363.487 11.9927C363.487 12.2494 363.387 12.4957 363.209 12.678C363.032 12.8603 362.79 12.9637 362.538 12.9658Z" fill="white"/>
<path d="M464.514 334.88C463.92 334.223 463.475 333.44 463.21 332.588C462.945 331.736 462.867 330.836 462.981 329.95C463.095 329.064 463.399 328.214 463.871 327.461C464.342 326.707 464.971 326.068 465.712 325.588L460.789 304.455L471.208 308.328L474.285 327.803C474.994 329.123 475.203 330.661 474.872 332.127C474.541 333.594 473.693 334.885 472.489 335.758C471.285 336.63 469.807 337.023 468.338 336.861C466.868 336.699 465.507 335.995 464.514 334.88Z" fill="#9E616A"/>
<path d="M439.46 246.32L443.641 257.26C443.641 257.26 441.849 268.2 444.836 270.631C447.822 273.062 446.628 273.062 446.628 274.886C446.731 276.194 447.103 277.465 447.72 278.617C448.338 279.768 449.187 280.775 450.212 281.571C452.601 283.395 463.353 320.469 463.353 320.469H474.104C473.757 317.644 473.757 314.786 474.104 311.96C474.702 307.706 472.312 296.766 471.118 294.942C469.923 293.119 471.118 290.688 471.118 287.041C471.118 283.395 468.728 281.571 468.728 275.493C468.728 269.416 461.561 222.009 462.158 216.539C462.755 211.069 456.185 206.206 456.185 206.206H450.212L439.46 246.32Z" fill="#E4E4E4"/>
<path d="M466.956 477.467H459.011L455.23 446.28L466.958 446.281L466.956 477.467Z" fill="#9E616A"/>
<path d="M468.983 485.305L443.361 485.304V484.974C443.362 482.283 444.412 479.702 446.282 477.799C448.153 475.896 450.689 474.827 453.334 474.827H453.335L458.015 471.214L466.747 474.827L468.984 474.827L468.983 485.305Z" fill="#2F2E41"/>
<path d="M394.265 477.236L386.803 474.458L393.781 443.848L404.795 447.948L394.265 477.236Z" fill="#9E616A"/>
<path d="M393.522 485.305L369.46 476.347L369.571 476.038C370.48 473.51 372.338 471.454 374.737 470.32C377.136 469.187 379.879 469.07 382.363 469.994L382.363 469.994L387.978 468.237L394.959 474.683L397.059 475.465L393.522 485.305Z" fill="#2F2E41"/>
<path d="M449.45 331.635C449.45 331.635 444.074 358.377 453.034 355.946C461.993 353.515 458.409 330.419 458.409 330.419L449.45 331.635Z" fill="#A0616A"/>
<path d="M410.027 309.45C410.027 309.45 402.859 319.175 402.859 324.645C402.859 330.115 400.47 378.738 400.47 378.738C400.47 378.738 382.334 451.142 385.918 454.789C389.502 458.436 402.046 462.083 403.837 460.259C405.629 458.436 421.376 383.6 421.376 383.6L436.309 342.878L450.047 401.225L451.242 463.219C451.242 463.219 466.175 466.866 469.161 464.435C472.148 462.004 472.745 403.049 469.161 382.384C465.577 361.72 469.759 314.313 469.759 314.313L410.027 309.45Z" fill="#2F2E41"/>
<path d="M433.981 179.689C443.878 179.689 451.901 171.525 451.901 161.455C451.901 151.385 443.878 143.222 433.981 143.222C424.085 143.222 416.062 151.385 416.062 161.455C416.062 171.525 424.085 179.689 433.981 179.689Z" fill="#9E616A"/>
<path d="M411.222 206.127C411.222 206.127 416.381 198.305 426.535 187.973C431.911 186.15 441.226 187.212 444.455 187.973C459.388 208.03 460.328 206.697 464.215 217.903C465.223 220.809 465.727 223.601 465.279 225.88C463.487 234.997 469.161 308.843 469.758 311.274C470.356 313.705 474.537 316.744 470.356 316.744C466.175 316.744 402.859 314.313 404.054 312.489C405.248 310.666 411.222 206.127 411.222 206.127Z" fill="#E4E4E4"/>
<path opacity="0.1" d="M408.487 311.687L426.453 271.463L417.47 314.242L408.487 311.687Z" fill="black"/>
<path d="M428.56 178.348C430.238 177.077 431.783 175.635 433.17 174.042C434.563 172.436 435.435 170.432 435.668 168.302C435.769 167.241 435.605 166.17 435.191 165.19C434.777 164.211 434.126 163.353 433.299 162.698C431.592 161.472 428.989 161.543 427.573 163.106C428.257 160.855 428.882 158.2 427.496 156.312C426.234 154.594 423.881 154.302 421.848 153.736C417.927 152.625 414.554 150.068 412.386 146.563L415.838 147.29L415.453 144.786L418.314 145.798L418.339 142.311L421.292 143.992C424.907 140.62 429.67 138.814 434.572 138.957C437.044 138.999 439.466 139.675 441.613 140.924C443.765 142.19 445.394 144.205 446.202 146.597C447.721 144.992 450.431 145.116 452.241 146.37C454.052 147.625 455.115 149.723 455.845 151.824C457.292 155.854 457.628 160.209 456.819 164.419C455.986 168.639 453.751 172.439 450.49 175.181C447.495 177.507 443.929 178.95 440.182 179.353C436.451 179.747 432.683 179.583 428.999 178.866" fill="#2F2E41"/>
<path d="M402.893 334.802C403.487 334.144 403.932 333.361 404.197 332.509C404.462 331.657 404.54 330.757 404.426 329.871C404.311 328.985 404.008 328.135 403.536 327.382C403.064 326.628 402.436 325.989 401.695 325.51L406.617 304.376L396.199 308.249L393.122 327.724C392.412 329.044 392.203 330.583 392.534 332.049C392.865 333.515 393.713 334.806 394.918 335.679C396.122 336.551 397.599 336.944 399.069 336.782C400.539 336.62 401.899 335.916 402.893 334.802V334.802Z" fill="#9E616A"/>
<path d="M417.195 206.127H411.222C411.222 206.127 404.651 210.99 405.249 216.46C405.846 221.93 398.678 269.337 398.678 275.415C398.678 281.492 396.289 283.316 396.289 286.962C396.289 290.609 397.483 293.04 396.289 294.864C395.094 296.687 392.705 307.627 393.302 311.881C393.65 314.707 393.65 317.565 393.302 320.39H404.054C404.054 320.39 414.806 283.316 417.195 281.492C418.22 280.696 419.069 279.69 419.686 278.538C420.303 277.386 420.676 276.115 420.779 274.807C420.779 272.983 419.584 272.983 422.571 270.552C425.557 268.121 423.765 257.181 423.765 257.181L427.946 246.241L417.195 206.127Z" fill="#E4E4E4"/>
<path d="M586.165 487H258.509C258.399 487 258.29 486.979 258.189 486.936C258.087 486.894 257.995 486.831 257.917 486.752C257.839 486.673 257.778 486.579 257.735 486.476C257.693 486.373 257.672 486.262 257.672 486.151C257.672 486.039 257.693 485.928 257.735 485.825C257.778 485.722 257.839 485.628 257.917 485.549C257.995 485.47 258.087 485.408 258.189 485.365C258.29 485.322 258.399 485.301 258.509 485.301H586.165C586.275 485.301 586.384 485.322 586.485 485.365C586.587 485.408 586.679 485.47 586.757 485.549C586.835 485.628 586.897 485.722 586.939 485.825C586.981 485.928 587.002 486.039 587.002 486.151C587.002 486.262 586.981 486.373 586.939 486.476C586.897 486.579 586.835 486.673 586.757 486.752C586.679 486.831 586.587 486.894 586.485 486.936C586.384 486.979 586.275 487 586.165 487Z" fill="#CACACA"/>
</g>
<defs>
<clipPath id="clip0_101_658">
<rect width="587" height="487" fill="white"/>
</clipPath>
</defs>
</svg>
