<svg width="157" height="356" viewBox="0 0 157 356" fill="none" xmlns="http://www.w3.org/2000/svg">
<path d="M29.9039 267.848C29.1123 265.092 27.7567 262.741 26.1428 261.063L20.2791 234.334L7.49799 237.465L14.8222 264.242C14.3406 266.508 14.4369 269.213 15.2285 271.969C17.0369 278.266 21.7881 282.448 25.8406 281.311C29.8931 280.173 31.7123 274.145 29.9039 267.848H29.9039Z" fill="#FFB6B6"/>
<path d="M28.1357 92.5072C28.1357 92.5072 14.3307 92.0307 6.33072 101.031C-2.83484 112.227 -9.09991 156.098 -4.3967 159.052L8.34597 249.537L26.5168 247.04L21.8533 138.472L28.1357 92.5071V92.5072Z" fill="#F5F8FA"/>
<path d="M121.331 245.031L118.023 355.468H70.5233L68.6033 312.898L60.1633 355.468H9.25336L15.6033 282.288L22.1633 266.898L26.6033 256.468L121.331 245.031Z" fill="#2F2E41"/>
<path d="M83.6033 74.468L50.6033 72.468L39.6033 86.468C30.1031 88.5022 21.5222 91.1282 15.6033 95.468C17.0194 137.394 13.9087 191.91 26.6033 202.468L15.3307 282.031C15.3307 282.031 19.8767 278.136 27.4704 279.511C30.0939 279.986 33.2608 285.896 36.4844 286.254C61.2541 289.006 101.422 286.176 121.331 245.031L113.603 185.468L115.603 98.468C109.351 93.5257 101.578 90.3138 92.6033 88.468L83.6033 74.468V74.468H83.6033Z" fill="#F5F8FA"/>
<path d="M147.134 50.1292C147.492 53.5961 147.037 56.8565 145.99 59.4706L151.487 92.2825L135.797 94.4415L131.91 60.9246C130.351 58.5797 129.24 55.4811 128.882 52.0141C128.064 44.0939 131.486 37.2513 136.527 36.7308C141.567 36.2103 146.316 42.2089 147.134 50.1291V50.1292H147.134H147.134Z" fill="#FFB6B6"/>
<path d="M94.9705 100.975C93.3278 103.399 93.7855 106.123 93.3932 109.396C91.7282 123.293 118.358 164.356 136.784 169.084C139.201 169.705 140.579 172.313 143.019 172.838H143.019C150.249 174.391 156.98 168.653 156.59 161.269L151.585 66.5607L130.558 73.7327L131.903 122.903C131.769 112.717 122.416 102.345 115.331 98.0307C115.331 98.0307 100.98 92.1085 94.9706 100.975L94.9705 100.975Z" fill="#F5F8FA"/>
<path d="M70.5279 69.8802C86.5815 69.8802 99.5956 56.8661 99.5956 40.8125C99.5956 24.7588 86.5815 11.7447 70.5279 11.7447C54.4742 11.7447 41.4601 24.7588 41.4601 40.8125C41.4601 56.8661 54.4742 69.8802 70.5279 69.8802Z" fill="#FFB6B6"/>
<path d="M97.6033 19.468C97.3533 19.528 101.43 15.5548 101.603 15.468C105.603 13.468 101.493 33.018 98.6033 32.468C91.4933 31.1179 88.4233 28.4379 85.6633 35.1279C84.8933 36.9879 84.4133 39.088 82.9133 40.418C80.8533 42.228 77.4333 42.078 75.7534 44.2379C74.4033 45.978 74.7933 48.538 75.7933 50.4979C76.7933 52.468 78.3134 54.138 79.2233 56.148C80.2433 58.408 75.8933 65.598 74.2333 69.638V69.648L74.2235 69.6716C73.7824 70.7313 72.7342 67.6787 71.6275 67.374C70.3033 67.0093 68.3525 70.1362 66.2433 69.568C66.2333 69.568 66.2233 69.5579 66.2133 69.5579C64.2033 68.9979 61.9633 68.398 59.7433 67.7979H59.7333C53.4833 66.098 51.9033 68.538 51.6033 68.468L47.7233 64.408C46.3918 63.4385 46.5423 60.3086 45.6033 59.468C44.8354 58.7805 42.9211 60.3691 42.3569 59.7083C39.5906 56.4683 38.9541 53.2271 37.3233 46.828C35.8333 40.978 32.7433 23.468 39.0933 22.6779C45.0833 21.9279 40.7033 13.588 46.7333 13.898C46.3733 12.378 47.0433 10.748 48.1333 9.62796C49.2133 8.49796 50.6533 7.79794 52.1033 7.19797C59.2533 4.27799 58.0633 1.76804 65.6033 3.46799C66.3533 2.418 75.9707 -0.319342 77.3307 0.0306977C77.4307 0.0506577 75.2333 4.31803 80.6033 3.46799C80.4033 4.69803 83.3307 2.0307 83.6033 6.46799C89.3307 3.0307 92.4133 11.258 92.6033 12.468C92.8533 13.978 90.5733 13.208 92.0933 13.438C92.9933 13.578 94.5333 15.408 94.3833 16.318C95.0333 15.438 95.6833 14.568 96.3433 13.688C96.4633 13.698 96.5733 13.718 96.6933 13.7379C99.7333 14.318 96.2481 24.2559 96.3733 21.158C96.6033 15.468 100.633 18.798 97.6033 19.468H97.6033Z" fill="#2F2E41"/>
</svg>
