<svg width="176" height="361" viewBox="0 0 176 361" fill="none" xmlns="http://www.w3.org/2000/svg">
<path d="M96.7416 18.915C95.6675 27.7423 94.4941 36.5575 93.2215 45.3584C92.7046 48.9329 92.1581 52.5529 90.72 55.8659C89.7383 58.1274 88.3634 60.1925 86.996 62.2438C85.3803 64.6679 83.7377 67.1229 81.5432 69.039C79.3488 70.9552 76.4983 72.3007 73.5938 72.0755C81.3002 66.8879 86.4796 58.1139 87.2979 48.8602C87.6826 44.5105 87.1548 40.1381 87.0535 35.7725C86.9523 31.407 87.3177 26.8894 89.3318 23.015C91.346 19.1405 95.3247 16.0391 99.69 16.1492L96.7415 18.915H96.7416V18.915Z" fill="#2F2E41"/>
<path d="M18.6395 207.188C12.369 212.274 4.66214 213.162 1.42575 209.171C-1.81064 205.181 0.648963 197.823 6.91946 192.738C9.66427 190.512 12.6843 189.09 15.4842 188.529L42.3244 167.313L52.0125 180.12L24.525 199.676C23.3987 202.3 21.3842 204.962 18.6394 207.188H18.6394L18.6395 207.188L18.6395 207.188Z" fill="#A0616A"/>
<path d="M23.7094 178.385L63.7024 140.437L67.7024 137.437C67.7024 137.437 90.6599 115.071 96.6047 114.559C99.1225 114.342 101.64 114.97 103.761 116.348C107.188 118.57 108.963 122.228 108.963 125.914C108.963 128.995 107.722 132.09 105.183 134.37L68.5691 167.239L52.993 181.22L33.622 198.615L31.6525 194.603L24.9934 181.011L23.7093 178.385V178.385L23.7094 178.385H23.7094Z" fill="#F5F8FA"/>
<path d="M109.224 152.704L69.1812 164.968C75.8853 166.857 78.6922 207.708 72.4532 208.977C72.4532 208.977 138.818 213.697 135.197 208.977C130.782 203.223 136.703 164.985 139.525 164.968L109.224 152.704V152.704Z" fill="#A0616A"/>
<path d="M162.508 360.878L159.008 318.638C159.008 303.528 158.028 289.878 156.458 277.708C150.168 228.858 134.398 203.818 134.398 203.818H75.398C75.318 203.908 75.238 203.978 75.158 204.068L75.148 204.078C61.228 218.708 53.988 255.498 50.768 277.708C49.238 288.278 48.618 295.548 48.618 295.548L42.848 346.828L47.0179 360.878H81.348L80.808 357.868L102.898 277.708L103.168 276.728L103.408 277.708L123.888 360.878H162.508V360.878V360.878Z" fill="#2F2E41"/>
<path d="M76.6071 128.337L89.0744 103.169L99.5793 84.8853L108.074 76.2279H131.323L133.488 84.8853L146.474 92.0998L151.067 128.172L134.702 206.437C115.223 190.565 75.0744 186.169 75.0744 186.169L68.5691 167.239L64.2693 144.434L63.7498 141.707L76.6071 128.337V128.337V128.337Z" fill="#F5F8FA"/>
<path d="M75.1113 173.863C67.0409 173.634 60.6167 169.285 60.7624 164.149C60.9081 159.013 67.5686 155.036 75.639 155.265C79.1717 155.365 82.3889 156.255 84.8777 157.654L119.062 159.054L118.064 175.081L84.4707 172.001C81.9065 173.257 78.644 173.963 75.1113 173.863V173.863L75.1113 173.863V173.863Z" fill="#A0616A"/>
<path d="M118.828 119.155L151.074 151.17L94.9065 156.921L81.8535 175.281L160.142 177.877C167.205 180.393 174.729 175.511 175.311 168.036V168.036C175.507 165.512 159.423 101.464 149.687 95.5176C138.275 88.5486 118.828 119.155 118.828 119.155L125.198 108.552L118.828 119.155V119.155Z" fill="#F5F8FA"/>
<path d="M141.228 44.8149C141.462 30.2735 129.864 18.2953 115.323 18.0608C100.781 17.8263 88.803 29.4244 88.5686 43.9658C88.3341 58.5072 99.9321 70.4854 114.474 70.7198C129.015 70.9543 140.993 59.3563 141.228 44.8149Z" fill="#A0616A"/>
<path d="M172.702 126.437C172.042 128.937 166.902 130.227 165.702 133.437C161.882 135.617 163.952 117.807 162.412 116.637C161.222 115.747 160.902 117.897 160.632 116.047C159.612 109.107 152.942 110.657 148.002 109.537C147.442 108.447 147.012 107.387 146.732 106.357C146.232 104.497 143.952 103.847 142.602 105.217C141.992 104.677 141.552 102.767 141.122 100.857C140.812 99.4672 140.502 98.0772 140.142 97.1972L136.702 89.4372L137.812 95.2172C135.562 94.4072 133.292 95.2472 131.982 92.4672C130.302 88.8972 129.632 84.7172 130.852 80.9672C131.962 77.5672 133.832 70.7572 135.942 65.1172C133.552 66.8472 130.682 68.1072 127.352 68.7372C128.532 66.4972 129.732 64.2172 130.232 61.7272C130.722 59.2372 130.422 56.4672 128.842 54.4872C127.542 52.8572 125.622 53.2672 124.002 51.9572C122.742 50.9372 121.652 48.3272 120.892 46.8972C124.132 57.6672 126.582 69.1072 122.462 79.3872C119.612 86.5072 113.612 92.2972 106.412 94.9272C110.242 92.1872 113.982 89.2672 116.852 85.5472C119.922 81.5572 121.922 76.5172 121.312 71.5172C120.352 63.6672 105.792 38.8372 104.002 33.9572C104.982 38.7272 104.602 42.4472 102.022 44.4972C101.352 37.5772 93.8124 38.2072 89.7024 35.4372C89.7024 35.4372 86.5224 17.4672 93.9824 17.3572C97.5824 17.3072 101.352 8.84718 104.622 7.33717C109.842 4.9272 113.042 6.56721 118.832 6.7472C124.612 6.91718 130.162 9.40717 133.692 13.9772C135.542 16.3672 136.222 14.4672 139.002 15.9572C141.642 17.3672 143.422 16.0572 146.412 16.1472C152.402 16.3072 158.212 19.5072 161.572 24.4572C164.932 29.4172 167.002 28.9572 165.672 36.6272C165.652 36.7172 165.652 36.8972 165.672 37.1672C166.402 49.2472 164.532 61.3572 159.742 72.4772C158.262 75.8972 165.502 79.427 165.492 83.697C165.482 88.6571 157.492 93.1772 158.232 95.2972C160.352 105.507 172.262 103.237 169.452 120.327C169.222 121.717 173.142 124.767 172.702 126.437V126.437Z" fill="#2F2E41"/>
<path d="M99.7501 95.168C99.97 95.098 100.19 95.018 100.41 94.928C100.13 95.128 99.86 95.318 99.5801 95.518L99.75 95.168H99.7501Z" fill="#2F2E41"/>
<path d="M136.842 10.9175C133.978 11.3432 131.068 6.59067 132.694 0C136.238 5.41956 138.05 11.5206 138.335 18.2222L136.425 18.814L136.842 10.9175V10.9175Z" fill="#F5F8FA"/>
<path d="M151.477 4.76575C149.523 11.6924 139.596 16.328 137.842 13.9175L137.641 18.0482L136.414 16.4693C139.974 11.1749 144.827 7.11342 151.477 4.76575H151.477V4.76575Z" fill="#F5F8FA"/>
</svg>
