<svg width="90" height="118" viewBox="0 0 90 118" fill="none" xmlns="http://www.w3.org/2000/svg">
<path d="M58.8414 61V59C35.7561 59 15.5967 40.1422 10.237 13.8743L18.9351 16.1119C14.7281 12.1261 10.4779 5.45343 7.84137 0C6.28418 5.85443 3.37555 13.2117 0 17.9225L8.22992 14.0239C13.7024 41.3524 34.7282 61 58.8414 61Z" fill="#3F3D56"/>
<path d="M34.1184 103.928L25.8885 100.03C29.2641 104.741 32.1727 112.098 33.7299 117.952C36.3664 112.499 40.6166 105.826 44.8237 101.84L36.1255 104.078C41.4853 77.8102 61.6446 58.9524 84.7299 58.9524V56.9524C60.6167 56.9524 39.5909 76.6 34.1184 103.928Z" fill="#3F3D56"/>
<path d="M87.1851 62.1469C88.5702 53.6112 82.7736 45.5688 74.2379 44.1836C65.7022 42.7985 57.6598 48.5951 56.2747 57.1308C54.8895 65.6665 60.6862 73.7089 69.2218 75.094C77.7575 76.4792 85.7999 70.6825 87.1851 62.1469Z" fill="#3F3D56"/>
</svg>
